<?xml version="1.0" encoding="UTF-8" standalone="no"?>
<!-- Created with Inkscape (http://www.inkscape.org/) -->

<svg
   width="121.65396mm"
   height="13.948914mm"
   viewBox="0 0 121.65396 13.948913"
   version="1.1"
   id="svg1"
   xml:space="preserve"
   xmlns="http://www.w3.org/2000/svg"
   xmlns:svg="http://www.w3.org/2000/svg"><defs
     id="defs1" /><g
     id="layer1"
     transform="translate(-698.33965,-125.31721)"><path
       d="m 698.33965,139.05794 h 3.64338 v -5.34362 h 5.20482 v 5.34362 h 3.64337 v -13.53253 h -3.64337 v 5.06602 h -5.20482 v -5.06602 h -3.64338 z m 14.22651,0 h 3.64337 v -13.53253 h -3.64337 z m 12.17926,-7.25205 v 2.7759 h 2.77591 c -0.0694,1.21446 -1.00627,1.73494 -3.08819,1.73494 -2.72386,0 -3.0188,-0.39903 -3.0188,-4.02506 0,-3.62602 0.29494,-4.02506 3.0188,-4.02506 2.72385,0 3.01879,0.20819 2.98409,2.08193 h 3.81687 c 0.0347,-4.02506 -1.31855,-5.03133 -6.80096,-5.03133 -5.46507,0 -6.83567,1.38796 -6.83567,6.97446 0,5.58651 1.3706,6.97446 6.83567,6.97446 1.96048,0 3.07084,-0.72867 3.50457,-2.37687 v 2.16868 h 3.29639 v -7.25205 z m 8.05014,7.25205 h 3.64338 v -5.34362 h 5.20482 v 5.34362 h 3.64337 v -13.53253 h -3.64337 v 5.06602 h -5.20482 v -5.06602 h -3.64338 z m 19.43131,0 h 3.64338 v -5.34362 h 5.20482 v 5.34362 h 3.64337 v -13.53253 h -3.64337 v 5.06602 h -5.20482 v -5.06602 h -3.64338 z m 20.90603,-10.79133 c 2.89735,0 3.20963,0.39904 3.20963,4.02506 0,3.62603 -0.31228,4.02506 -3.20963,4.02506 -2.89735,0 -3.20964,-0.39903 -3.20964,-4.02506 0,-3.62602 0.31229,-4.02506 3.20964,-4.02506 z m -7.02651,4.02506 c 0,5.58651 1.4053,6.97446 7.02651,6.97446 5.6212,0 7.0265,-1.38795 7.0265,-6.97446 0,-5.5865 -1.4053,-6.97446 -7.0265,-6.97446 -5.62121,0 -7.02651,1.38796 -7.02651,6.97446 z m 27.27326,1.21446 v -7.98072 h -3.64337 v 7.98072 c 0,2.53301 -0.24289,2.8106 -2.35952,2.8106 -2.11662,0 -2.35952,-0.27759 -2.35952,-2.8106 v -7.98072 h -3.64337 v 7.98072 c 0,4.61494 1.19711,5.76 6.00289,5.76 4.80579,0 6.00289,-1.14506 6.00289,-5.76 z m 7.63373,2.8106 c -2.32482,0 -2.60241,-0.17349 -2.60241,-1.80434 h -3.81686 c 0,3.79952 1.3359,4.75374 6.52337,4.75374 5.04868,0 6.34988,-0.76337 6.34988,-3.85157 0,-2.72385 -1.35325,-3.66072 -6.41928,-4.64964 -1.83903,-0.38168 -2.34217,-0.64192 -2.34217,-1.35325 0,-1.02361 0.26024,-1.14506 2.41157,-1.14506 2.18602,0 2.44627,0.19084 2.44627,1.99518 h 3.81686 c 0,-3.95566 -1.28385,-4.94458 -6.26313,-4.94458 -4.94458,0 -6.22843,0.81542 -6.22843,4.05976 0,2.51567 1.11036,3.34844 5.53445,4.23326 2.55037,0.50313 3.22699,0.83277 3.22699,1.61349 0,0.98892 -0.27759,1.09301 -2.63711,1.09301 z m 7.84193,-10.79132 v 13.53253 h 11.13831 v -3.12289 h -7.49494 v -2.25543 h 6.76627 v -2.94939 h -6.76627 v -2.08193 h 7.46024 v -3.12289 z"
       id="text3"
       style="font-size:17.3494px;font-family:'Basement Grotesque';-inkscape-font-specification:'Basement Grotesque, Normal';text-align:center;letter-spacing:0px;text-orientation:upright;text-anchor:middle;fill:#ffffff;stroke-width:0.260241"
       aria-label="HIGH HOUSE" /></g></svg>
