<?xml version="1.0" encoding="UTF-8" standalone="no"?>
<!-- Created with Inkscape (http://www.inkscape.org/) -->

<svg
   width="211.66666mm"
   height="264.58334mm"
   viewBox="0 0 211.66665 264.58334"
   version="1.1"
   id="svg1"
   xml:space="preserve"
   sodipodi:docname="high-house-flowmap-mobile.svg"
   inkscape:export-filename="high-house-flowmap-mobile.png"
   inkscape:export-xdpi="96"
   inkscape:export-ydpi="96"
   xmlns:inkscape="http://www.inkscape.org/namespaces/inkscape"
   xmlns:sodipodi="http://sodipodi.sourceforge.net/DTD/sodipodi-0.dtd"
   xmlns="http://www.w3.org/2000/svg"
   xmlns:svg="http://www.w3.org/2000/svg"><sodipodi:namedview
     id="namedview1"
     pagecolor="#505050"
     bordercolor="#eeeeee"
     borderopacity="1"
     inkscape:showpageshadow="0"
     inkscape:pageopacity="0"
     inkscape:pagecheckerboard="0"
     inkscape:deskcolor="#505050"
     inkscape:document-units="mm"><inkscape:page
       x="0"
       y="0"
       width="211.66666"
       height="264.58334"
       id="page2"
       margin="0"
       bleed="0" /></sodipodi:namedview><defs
     id="defs1" /><g
     id="layer1"
     transform="translate(-653.33331)"><g
       id="text1"
       style="font-size:24.8498px;font-family:'Basement Grotesque';-inkscape-font-specification:'Basement Grotesque, Normal';text-align:center;letter-spacing:0px;text-orientation:upright;text-anchor:middle;fill:#ffffff;stroke-width:0.372746"
       aria-label="HIGH&#10;HOUSE"><path
         d="m 725.42058,126.45197 h 5.21846 v -7.65374 h 7.45494 v 7.65374 h 5.21846 v -19.38284 h -5.21846 v 7.25614 h -7.45494 v -7.25614 h -5.21846 z m 20.37683,0 h 5.21846 v -19.38284 h -5.21846 z m 17.44455,-10.38721 v 3.97596 h 3.97597 c -0.0994,1.73949 -1.44129,2.48498 -4.42327,2.48498 -3.90142,0 -4.32386,-0.57154 -4.32386,-5.76515 0,-5.19361 0.42244,-5.76515 4.32386,-5.76515 3.90142,0 4.32387,0.29819 4.27417,2.98197 h 5.46695 c 0.0497,-5.76515 -1.88858,-7.20644 -9.74112,-7.20644 -7.82769,0 -9.79082,1.98799 -9.79082,9.98962 0,8.00164 1.96313,9.98962 9.79082,9.98962 2.80803,0 4.39842,-1.04369 5.01966,-3.40442 v 3.10622 h 4.72146 v -10.38721 z m 11.53033,10.38721 h 5.21846 v -7.65374 h 7.45494 v 7.65374 h 5.21846 v -19.38284 h -5.21846 v 7.25614 h -7.45494 v -7.25614 h -5.21846 z"
         id="path2" /><path
         d="m 710.63494,157.51422 h 5.21846 v -7.65374 h 7.45494 v 7.65374 h 5.21846 v -19.38284 h -5.21846 v 7.25614 h -7.45494 v -7.25614 h -5.21846 z m 29.94401,-15.45657 c 4.14991,0 4.59721,0.57154 4.59721,5.76515 0,5.19361 -0.4473,5.76515 -4.59721,5.76515 -4.14992,0 -4.59722,-0.57154 -4.59722,-5.76515 0,-5.19361 0.4473,-5.76515 4.59722,-5.76515 z m -10.06417,5.76515 c 0,8.00164 2.01283,9.98962 10.06417,9.98962 8.05133,0 10.06417,-1.98798 10.06417,-9.98962 0,-8.00163 -2.01284,-9.98962 -10.06417,-9.98962 -8.05134,0 -10.06417,1.98799 -10.06417,9.98962 z m 39.06391,1.73949 v -11.43091 h -5.21846 v 11.43091 c 0,3.62807 -0.3479,4.02566 -3.37958,4.02566 -3.03167,0 -3.37957,-0.39759 -3.37957,-4.02566 v -11.43091 h -5.21846 v 11.43091 c 0,6.61004 1.71464,8.25013 8.59803,8.25013 6.8834,0 8.59804,-1.64009 8.59804,-8.25013 z m 10.93389,4.02566 c -3.32987,0 -3.72747,-0.24849 -3.72747,-2.58437 h -5.46696 c 0,5.4421 1.91344,6.80884 9.34353,6.80884 7.23129,0 9.09503,-1.09339 9.09503,-5.51665 0,-3.90142 -1.93829,-5.24331 -9.19443,-6.65975 -2.63408,-0.5467 -3.35472,-0.91944 -3.35472,-1.93829 0,-1.46613 0.37274,-1.64008 3.45412,-1.64008 3.13107,0 3.50382,0.27335 3.50382,2.85772 h 5.46696 c 0,-5.66575 -1.83889,-7.08219 -8.97078,-7.08219 -7.08219,0 -8.92108,1.16794 -8.92108,5.81485 0,3.60323 1.59039,4.79602 7.92709,6.06336 3.65292,0.72064 4.62206,1.19279 4.62206,2.31103 0,1.41644 -0.3976,1.56553 -3.77717,1.56553 z m 11.23211,-15.45657 v 19.38284 h 15.95357 v -4.47296 h -10.73511 v -3.23047 h 9.69142 v -4.22447 h -9.69142 v -2.98198 h 10.68542 v -4.47296 z"
         id="path3" /></g></g></svg>
